HIERARCHY
ROOT SpineBase
{
  OFFSET 0.000000 0.000000 0.000000
  CHANNELS 6 Xposition Yposition Zposition Zrotation Xrotation Yrotation
  JOINT SpineMid
  {
    OFFSET 0.000000 28.559755 0.000000
    CHANNELS 3 Zrotation Xrotation Yrotation
    JOINT SpineShoulder
    {
      OFFSET -0.169532 21.072299 -0.610331
      CHANNELS 3 Zrotation Xrotation Yrotation
      JOINT Neck
      {
        OFFSET -0.038687 6.944885 -0.491575
        CHANNELS 3 Zrotation Xrotation Yrotation
        JOINT Head
        {
          OFFSET 2.727645 12.892051 -0.578770
          CHANNELS 3 Zrotation Xrotation Yrotation
          End Site
          {
            OFFSET 0 0 0
          }
        }
      }
      JOINT ShoulderLeft
      {
        OFFSET -14.454059 -4.211144 -7.524042
        CHANNELS 3 Zrotation Xrotation Yrotation
        JOINT ElbowLeft
        {
          OFFSET -4.571586 -23.453203 1.008494
          CHANNELS 3 Zrotation Xrotation Yrotation
          JOINT WristLeft
          {
            OFFSET 0.458726 -19.747338 -4.718293
            CHANNELS 3 Zrotation Xrotation Yrotation
            JOINT HandLeft
            {
              OFFSET 0.488936 -6.507567 1.015136
              CHANNELS 3 Zrotation Xrotation Yrotation
              JOINT HandTipLeft
              {
                OFFSET -0.191162 -7.145370 -0.678310
                CHANNELS 3 Zrotation Xrotation Yrotation
                End Site
                {
                  OFFSET 0 0 0
                }
              }
              JOINT ThumbLeft
              {
                OFFSET 3.683564 0.791002 -1.667594
                CHANNELS 3 Zrotation Xrotation Yrotation
                End Site
                {
                  OFFSET 0 0 0
                }
              }
            }
          }
        }
      }
      JOINT ShoulderRight
      {
        OFFSET 15.466344 -5.210783 1.697957
        CHANNELS 3 Zrotation Xrotation Yrotation
        JOINT ElbowRight
        {
          OFFSET 2.555934 -23.243976 3.716058
          CHANNELS 3 Zrotation Xrotation Yrotation
          JOINT WristRight
          {
            OFFSET 1.785802 -21.676580 -2.682344
            CHANNELS 3 Zrotation Xrotation Yrotation
            JOINT HandRight
            {
              OFFSET -0.020084 -6.466464 -0.577198
              CHANNELS 3 Zrotation Xrotation Yrotation
              JOINT HandTipRight
              {
                OFFSET 0.303540 -6.371639 1.171538
                CHANNELS 3 Zrotation Xrotation Yrotation
                End Site
                {
                  OFFSET 0 0 0
                }
              }
              JOINT ThumbRight
              {
                OFFSET -1.642138 -2.780617 0.163774
                CHANNELS 3 Zrotation Xrotation Yrotation
                End Site
                {
                  OFFSET 0 0 0
                }
              }
            }
          }
        }
      }
    }
  }
  JOINT HipLeft
  {
    OFFSET -6.272859 0.374107 -5.044948
    CHANNELS 3 Zrotation Xrotation Yrotation
    JOINT KneeLeft
    {
      OFFSET -5.016081 -28.575835 6.372191
      CHANNELS 3 Zrotation Xrotation Yrotation
      JOINT AnkleLeft
      {
        OFFSET -4.113496 -32.149034 7.600415
        CHANNELS 3 Zrotation Xrotation Yrotation
        JOINT FootLeft
        {
          OFFSET 1.959904 -5.647192 -3.111496
          CHANNELS 3 Zrotation Xrotation Yrotation
          End Site
          {
            OFFSET 0 0 0
          }
        }
      }
    }
  }
  JOINT HipRight
  {
    OFFSET 5.754777 0.460948 -1.569599
    CHANNELS 3 Zrotation Xrotation Yrotation
    JOINT KneeRight
    {
      OFFSET -2.347364 -27.949709 8.646213
      CHANNELS 3 Zrotation Xrotation Yrotation
      JOINT AnkleRight
      {
        OFFSET -6.577913 -33.636225 11.867907
        CHANNELS 3 Zrotation Xrotation Yrotation
        JOINT FootRight
        {
          OFFSET 2.427786 -3.734195 -12.441382
          CHANNELS 3 Zrotation Xrotation Yrotation
          End Site
          {
            OFFSET 0 0 0
          }
        }
      }
    }
  }
}
MOTION
Frames: 6
Frame Time: 0.033333
30.144117 78.165717 360.328847 -1.909644 -3.950052 -13.963129 0.112946 -1.113840 13.784911 0.331854 -0.484858 -0.074646 25.100240 27.858119 -11.155221 0.000000 0.000000 0.000000 154.101690 51.288889 -167.187128 23.172441 17.052107 56.779875 -3.288673 20.127951 56.371988 4.771586 -18.619156 -31.397071 0.000000 0.000000 0.000000 0.000000 0.000000 0.000000 132.888398 25.614071 -22.126847 21.307905 26.795868 -102.479982 9.351605 7.902672 -5.569521 -3.120885 -3.278875 59.811891 0.000000 0.000000 0.000000 0.000000 0.000000 0.000000 2.297298 14.723452 12.737309 -0.288997 -9.232757 1.869048 -1.704714 33.820316 8.710448 0.000000 0.000000 0.000000 3.750566 4.624114 14.550112 -2.829806 0.397844 -0.898245 -9.615395 -48.520792 10.414535 0.000000 0.000000 0.000000
30.248406 77.592610 360.272282 -2.173499 -4.411771 -16.184800 -0.159002 -1.430629 15.970139 0.546660 -0.194995 -0.092510 27.853500 27.870131 -11.835505 0.000000 0.000000 0.000000 159.952144 56.032228 -178.264691 27.932988 25.269319 63.426153 -0.258519 16.948023 64.211404 3.404470 -22.286394 -22.355538 0.000000 0.000000 0.000000 0.000000 0.000000 0.000000 126.170129 25.998417 -20.474290 26.988988 30.041178 -103.121100 6.007711 11.677810 -15.919518 -3.306784 1.800058 58.579946 0.000000 0.000000 0.000000 0.000000 0.000000 0.000000 1.248368 13.972392 15.102343 0.851974 -7.844154 1.962454 0.660867 34.530803 7.023949 0.000000 0.000000 0.000000 3.521344 5.193813 16.683404 -2.637728 0.427865 -0.841536 -9.981549 -52.840223 12.097457 0.000000 0.000000 0.000000
30.328036 77.094869 360.175184 -2.280642 -4.557762 -18.677351 0.137419 -1.269635 18.453706 0.311327 -0.034921 -0.086423 30.440945 27.913305 -12.621516 0.000000 0.000000 0.000000 162.807786 63.125979 177.141859 33.108530 32.661738 63.300702 3.432789 13.411582 71.004496 -0.790645 -18.871098 -29.750003 0.000000 0.000000 0.000000 0.000000 0.000000 0.000000 117.048067 26.148855 -17.310719 33.493568 33.396491 -102.703730 0.705428 15.596590 -29.847185 -5.271906 10.870437 46.470795 0.000000 0.000000 0.000000 0.000000 0.000000 0.000000 0.591775 12.450348 17.822386 1.377262 -5.749840 1.690880 3.437484 35.573895 5.476911 0.000000 0.000000 0.000000 3.582750 5.541302 19.216760 -2.866827 0.482136 -0.914712 -9.909161 -49.510948 9.825313 0.000000 0.000000 0.000000
30.260555 76.131081 360.176584 -2.289479 -4.555170 -18.531315 0.632022 -0.803271 18.311239 -0.005343 -0.009619 -0.067352 29.987985 27.650667 -12.438997 0.000000 0.000000 0.000000 163.848311 71.052145 175.733245 38.037074 35.677622 58.169686 9.279760 10.464190 76.935190 -3.323109 -12.326616 -39.935748 0.000000 0.000000 0.000000 0.000000 0.000000 0.000000 109.528935 23.631742 -11.821691 39.325496 36.103755 -105.457340 -4.309213 18.813351 -40.594664 -4.059301 13.432017 29.070171 0.000000 0.000000 0.000000 0.000000 0.000000 0.000000 0.984973 11.004619 17.859089 1.233754 -3.422126 1.188285 5.399009 36.931742 4.894025 0.000000 0.000000 0.000000 3.874580 4.961134 19.135106 -2.931660 1.113234 -0.972924 -9.643030 -48.791981 10.517747 0.000000 0.000000 0.000000
30.069334 75.060294 360.284467 -2.204005 -4.519915 -17.623332 1.120814 -0.163851 17.413771 -0.438941 -0.053031 -0.049498 28.955300 27.477902 -12.142317 0.000000 0.000000 0.000000 157.560234 79.212527 -176.493489 42.862549 36.346656 50.377110 10.433915 10.772786 72.476947 -5.248231 -10.674034 -39.816059 0.000000 0.000000 0.000000 0.000000 0.000000 0.000000 100.326604 22.229566 -8.081973 45.477309 39.627853 -105.826278 -7.458061 19.596462 -43.434307 -2.096396 12.878687 29.926464 0.000000 0.000000 0.000000 0.000000 0.000000 0.000000 1.708262 9.813106 17.144982 1.147484 -2.127053 0.896223 2.969772 35.384946 6.152617 0.000000 0.000000 0.000000 4.314692 4.430814 18.344751 -3.210547 1.644581 -1.087714 -9.355810 -48.035581 11.370719 0.000000 0.000000 0.000000
29.804541 74.348697 360.484844 -2.056828 -4.417921 -16.613138 1.502939 0.544381 16.418826 -0.910902 -0.109469 -0.040175 27.705353 27.043609 -11.643258 0.000000 0.000000 0.000000 103.845427 88.109402 -122.103955 47.051038 35.393830 42.005535 5.220564 15.521382 53.654107 -3.246959 -18.148529 -25.489454 0.000000 0.000000 0.000000 0.000000 0.000000 0.000000 89.901821 20.758990 -4.738348 52.794381 43.101705 -105.336903 -9.840766 16.359894 -40.518479 -0.402864 12.910972 32.468214 0.000000 0.000000 0.000000 0.000000 0.000000 0.000000 2.459621 8.863005 16.326903 0.661479 -0.711032 0.491989 3.142738 34.933562 6.139245 0.000000 0.000000 0.000000 4.717839 4.265492 17.460795 -3.639179 1.736038 -1.219228 -9.107431 -47.390879 12.200130 0.000000 0.000000 0.000000
